<svg xmlns="http://www.w3.org/2000/svg" xmlns:xlink="http://www.w3.org/1999/xlink" width="456" height="241" viewBox="0 0 456 241"><defs><clipPath id="a"><rect width="456" height="241" transform="translate(270 298)" fill="#f0f0f0"/></clipPath><clipPath id="b"><rect width="204.673" height="241" fill="none"/></clipPath><clipPath id="d"><rect width="24.378" height="42.372" fill="none"/></clipPath><clipPath id="e"><rect width="24.643" height="42.654" fill="none"/></clipPath><clipPath id="f"><rect width="48.846" height="28.174" fill="none"/></clipPath><clipPath id="h"><rect width="31.449" height="54.662" fill="none"/></clipPath><clipPath id="i"><rect width="31.792" height="55.026" fill="none"/></clipPath><clipPath id="j"><rect width="63.015" height="36.346" fill="none"/></clipPath></defs><g transform="translate(-265 -281)"><g transform="translate(466 395.261)"><circle cx="32" cy="32" r="32" fill="#151515" stroke="#f0f0f0" stroke-width="1" opacity="0.5"/><path d="M44,32,24,42V22Z" fill="#fff" stroke="#f0f0f0" stroke-width="1"/></g><g transform="translate(-5 -17)" clip-path="url(#a)"><g transform="translate(395.663 298)"><g clip-path="url(#b)"><path d="M27.174,281.942.061,341.268l75.21,43.423,102.33-15.9,27.1-59.321L129.5,266.048Z" transform="translate(-0.033 -143.691)" fill="#dee3e7"/><path d="M386.063,300.748l-.028,6.749,27.1-59.677.029-6.393Z" transform="translate(-208.494 -130.393)" fill="#820000"/><path d="M27.174,162.906.061,222.231l75.21,43.423,102.33-15.9,27.1-59.321L129.5,147.012Z" transform="translate(-0.033 -79.4)" fill="#eb0000"/><path d="M265.891,370.411l-.029,6.749-102.33,15.9.028-6.749Z" transform="translate(-88.323 -200.056)" fill="#a30000"/><path d="M0,317.313l75.21,43.422.028-6.748L.028,310.565Z" transform="translate(0 -167.733)" fill="#c00"/><path d="M95,259.217,126.291,277.4l31.553-18.177L126.5,241.033Z" transform="translate(-51.311 -130.18)" fill="#a30000"/><path d="M225.224,197.446l24.253,14.094,24.459-14.09-24.3-14.1Z" transform="translate(-121.642 -99.026)" fill="#a30000"/><g clip-path="url(#b)"><g transform="translate(103.297 0.099)" opacity="0.35"><g clip-path="url(#d)"><path d="M224.653,14.314,224.6,42.587l24.378-14.026L248.957.215Z" transform="translate(-224.603 -0.215)" fill="#d1d1d1"/></g></g><g transform="translate(127.65 0.05)" opacity="0.75"><g clip-path="url(#e)"><path d="M302.2,42.762l-.056-28.53L277.556.107V28.5Z" transform="translate(-277.556 -0.108)" fill="#ececec"/></g></g><g transform="translate(103.463 28.445)" opacity="0.75"><g clip-path="url(#f)"><path d="M224.965,75.684,249.177,61.85l24.634,14.269-24.61,13.9Z" transform="translate(-224.965 -61.85)" fill="#dcdcdc"/></g></g></g><path d="M225.266,31.155l22.8,13.117.139,27.769L225.237,58.752l.029-26.682m-.738-1.273L224.5,59.178l24.452,14.149L248.8,43.841,226.02,30.8Z" transform="translate(-121.249 -16.633)" fill="#fff"/><path d="M226.045,14.157l22.94-13.3,23.046,13.311-23.166,13.06ZM248.985,0,224.564,14.161l24.3,13.915,24.661-13.9Z" transform="translate(-121.285)" fill="#fff"/><g clip-path="url(#b)"><g transform="translate(43.325 64.028)" opacity="0.35"><g clip-path="url(#h)"><path d="M94.266,157.408,94.2,193.882l31.449-18.094-.032-36.569Z" transform="translate(-94.203 -139.219)" fill="#d1d1d1"/></g></g><g transform="translate(74.742 63.964)" opacity="0.75"><g clip-path="url(#i)"><path d="M194.307,194.107l-.072-36.806-31.719-18.221V175.7Z" transform="translate(-162.515 -139.081)" fill="#ececec"/></g></g><g transform="translate(43.539 100.597)" opacity="0.75"><g clip-path="url(#j)"><path d="M94.67,236.58,125.9,218.733l31.78,18.408-31.748,17.938Z" transform="translate(-94.67 -218.733)" fill="#dcdcdc"/></g></g></g><path d="M95.056,179.134l29.411,16.921.179,35.824L95.019,214.736l.037-34.421m-.952-1.642-.04,36.613,31.545,18.253-.191-38.038L96.029,178.679Z" transform="translate(-50.803 -96.499)" fill="#fff"/><path d="M125.657,140.044l29.73,17.172L125.5,174.064,96.062,157.205Zm0-1.1L94.151,157.21,125.5,175.161l31.815-17.935Z" transform="translate(-50.85 -75.041)" fill="#fff"/><path d="M209.88,304.184l24.253,14.094,24.459-14.09-24.3-14.1Z" transform="translate(-113.355 -156.675)" fill="#a30000"/><g clip-path="url(#b)"><g transform="translate(96.24 97.117)" opacity="0.35"><g clip-path="url(#d)"><path d="M209.309,225.266l-.049,28.273,24.378-14.026-.024-28.346Z" transform="translate(-209.26 -211.167)" fill="#d1d1d1"/></g></g><g transform="translate(120.594 97.068)" opacity="0.75"><g clip-path="url(#e)"><path d="M286.856,253.714l-.056-28.53L262.213,211.06v28.389Z" transform="translate(-262.213 -211.06)" fill="#ececec"/></g></g><g transform="translate(96.407 125.464)" opacity="0.75"><g clip-path="url(#f)"><path d="M209.622,286.637,233.833,272.8l24.634,14.269-24.61,13.9Z" transform="translate(-209.622 -272.802)" fill="#dcdcdc"/></g></g></g><path d="M209.922,242.107l22.8,13.117.139,27.769L209.893,269.7l.029-26.682m-.738-1.273-.031,28.381L233.6,284.279l-.148-29.485-22.781-13.039Z" transform="translate(-112.962 -130.567)" fill="#fff"/><path d="M233.642,211.808l23.046,13.311-23.167,13.059L210.7,225.11Zm0-.855L209.22,225.114l24.3,13.915,24.662-13.9Z" transform="translate(-112.998 -113.934)" fill="#fff"/></g></g></g></g></svg>